<svg fill="#2D4534" xmlns="http://www.w3.org/2000/svg" data-name="Layer 1" viewBox="0 0 102.13 102.13" x="0px" y="0px"><title>Hand</title><path d="M73,70.12c-.33.39-.68.76-1,1.13s-.69.67-1,1Z"></path><path d="M71,60.17a1.2,1.2,0,1,1-1.7-1.7,5,5,0,0,0,0-7.1,1.2,1.2,0,1,1,1.7-1.7A7.42,7.42,0,0,1,71,60.17Z"></path><path d="M73,70.12c-.33.39-.68.76-1,1.13s-.69.67-1,1Z"></path><path d="M93.27,70.72l-11.9-9.94a25.38,25.38,0,0,0-6-21.67c-.33-.4-.69-.77-1-1.13L63,26.71a6.57,6.57,0,0,0-7.78-1.09l-8.53-8.53a7.08,7.08,0,0,0-10,0,7,7,0,0,0-1.81,3.12,7.07,7.07,0,0,0-9.55,10.4l.41.41a6.94,6.94,0,0,0-3.08,1.8,7.09,7.09,0,0,0,0,10L23.94,44a7,7,0,0,0-3.08,1.8,7.09,7.09,0,0,0,0,10l17.79,17.8a25.53,25.53,0,0,0,24,6.81l9.52,11.4a1.83,1.83,0,0,0,1.39.64h0a1.8,1.8,0,0,0,1.38-.65l8-9.64,10.39-8.7a1.83,1.83,0,0,0,.64-1.39A1.79,1.79,0,0,0,93.27,70.72ZM61.1,77.07a21.91,21.91,0,0,1-19.89-6L23.41,53.28a3.47,3.47,0,0,1-1-2.44,3.43,3.43,0,0,1,1-2.44,3.55,3.55,0,0,1,4.89,0L40.73,60.83a1.81,1.81,0,0,0,2.55-2.56L30.85,45.84l-5.58-5.58a3.45,3.45,0,0,1,4.78-5l6.27,6.26,9.13,9.13A1.81,1.81,0,1,0,48,48.12L38.87,39l-6.16-6.16L27.94,28a3.45,3.45,0,1,1,4.88-4.88l8.47,8.47,8.92,8.92A1.81,1.81,0,1,0,52.77,38l-8.92-8.92-4.56-4.55-.11-.12a3.47,3.47,0,0,1,.11-4.76,3.46,3.46,0,0,1,4.89,0l8.52,8.52A6.57,6.57,0,0,0,53.8,36l4.68,4.68a10.09,10.09,0,0,0,.21,12.72l1.39-1.16L61.47,51a6.51,6.51,0,0,1,.42-8.82,1.4,1.4,0,0,1,.18-.17,1.82,1.82,0,0,0,.2-2.73L56.35,33.4a2.87,2.87,0,0,1-.85-2.06,2.94,2.94,0,0,1,.85-2.07,3,3,0,0,1,4.14,0L71.75,40.53c.3.3.59.61.89,1a21.88,21.88,0,0,1,5.17,18.7,21.22,21.22,0,0,1-1,3.58A21,21,0,0,1,73,70.09s0,0,0,0c-.33.39-.68.76-1,1.13s-.69.67-1,1l0,0,0,0a21.33,21.33,0,0,1-9.71,4.79Zm19.33,2.46a2.5,2.5,0,0,0-.23.23l-6.68,8.09-7.19-8.61a24.89,24.89,0,0,0,14-14.63l9,7.49Z"></path><path d="M71,60.17a1.2,1.2,0,1,1-1.7-1.7,5,5,0,0,0,0-7.1,1.2,1.2,0,1,1,1.7-1.7A7.42,7.42,0,0,1,71,60.17Z"></path><path d="M66.44,25.05a1.2,1.2,0,0,1-1.2-1.2,5,5,0,0,0-5-5,1.2,1.2,0,1,1,0-2.41,7.43,7.43,0,0,1,7.42,7.42A1.2,1.2,0,0,1,66.44,25.05Z"></path><path d="M72.62,24.68a1.2,1.2,0,0,1-1.2-1.2A10.83,10.83,0,0,0,60.6,12.66a1.2,1.2,0,0,1,0-2.41A13.24,13.24,0,0,1,73.82,23.47,1.2,1.2,0,0,1,72.62,24.68Z"></path><path d="M22.41,69.08A7.43,7.43,0,0,1,15,61.66a1.2,1.2,0,1,1,2.41,0,5,5,0,0,0,5,5,1.2,1.2,0,0,1,0,2.41Z"></path><path d="M22,75.25A13.24,13.24,0,0,1,8.82,62a1.2,1.2,0,0,1,2.41,0A10.83,10.83,0,0,0,22,72.85a1.2,1.2,0,1,1,0,2.41Z"></path></svg>