<svg fill="#2D4534" xmlns="http://www.w3.org/2000/svg" xmlns:xlink="http://www.w3.org/1999/xlink" version="1.1" x="0px" y="0px" viewBox="0 0 100 100" enable-background="new 0 0 100 100" xml:space="preserve"><g><path fill="none" d="M23.771,86.283c0.073-0.014,0.147-0.024,0.222-0.028l27.252-1.562c0.102-0.006,0.203-0.019,0.302-0.039   c1.013-0.205,1.733-1.141,1.673-2.177c-0.067-1.155-1.06-2.042-2.216-1.975l-14.539,0.833c-0.818,0.047-1.546-0.515-1.709-1.318   l-0.043-0.212c-0.181-0.892,0.396-1.762,1.288-1.942l6.824-1.383c1.51-0.306,2.489-1.783,2.183-3.292   c-0.306-1.509-1.783-2.489-3.292-2.183c-0.892,0.181-1.762-0.396-1.942-1.288c-0.181-0.892,0.396-1.762,1.288-1.942l1.02-0.207   c1.51-0.306,2.489-1.783,2.183-3.292c-0.306-1.509-1.782-2.488-3.292-2.182l-1.7,0.345c-0.892,0.181-1.762-0.396-1.942-1.288   s0.396-1.762,1.288-1.942c1.51-0.306,2.489-1.783,2.183-3.292s-1.783-2.489-3.292-2.183L22.54,56.767   c-0.633,0.128-1.283-0.125-1.661-0.648c-0.379-0.523-0.418-1.219-0.099-1.781l8.31-14.64c0.368-0.648,0.462-1.402,0.263-2.121   c-0.198-0.719-0.665-1.318-1.313-1.686c-0.586-0.333-1.272-0.442-1.932-0.309c-0.794,0.161-1.477,0.656-1.876,1.359L9.296,63.255   c-0.03,0.054-0.064,0.106-0.101,0.156c-2.404,3.307-3.321,7.485-2.514,11.464C8.267,82.699,15.934,87.817,23.771,86.283z"></path><path fill="#2D4534" d="M24.292,89.539l27.142-1.555c0.258-0.015,0.516-0.048,0.768-0.099c0.001,0,0.001,0,0.001,0   c2.609-0.529,4.462-2.934,4.309-5.596c-0.171-2.969-2.725-5.247-5.695-5.077l-3.699,0.212c1.022-1.346,1.482-3.108,1.121-4.891   c-0.3-1.48-1.117-2.727-2.224-3.59c1.268-1.388,1.881-3.342,1.48-5.322c-0.44-2.17-1.99-3.837-3.939-4.53   c0.551-1.152,0.747-2.485,0.474-3.83c-0.667-3.291-3.887-5.425-7.177-4.758l-11.421,2.315l6.524-11.493   c0.803-1.414,1.007-3.057,0.574-4.624c-0.433-1.568-1.45-2.873-2.864-3.676c-1.278-0.725-2.774-0.964-4.213-0.673   c-1.729,0.35-3.218,1.43-4.088,2.962L6.474,61.549c-2.905,4.04-4.006,9.129-3.023,13.98C5.388,85.086,14.722,91.349,24.292,89.539z    M9.195,63.41c0.037-0.05,0.07-0.102,0.101-0.156l14.936-26.314c0.399-0.703,1.083-1.198,1.876-1.359   c0.659-0.134,1.345-0.024,1.932,0.309c0.648,0.368,1.115,0.967,1.313,1.686c0.199,0.719,0.105,1.473-0.263,2.121l-8.31,14.64   c-0.319,0.562-0.28,1.258,0.099,1.781c0.379,0.523,1.029,0.776,1.661,0.648l14.968-3.034c1.51-0.306,2.986,0.673,3.292,2.183   s-0.673,2.986-2.183,3.292c-0.892,0.181-1.469,1.05-1.288,1.942s1.051,1.468,1.942,1.288l1.7-0.345   c1.51-0.306,2.986,0.673,3.292,2.182c0.306,1.509-0.673,2.986-2.183,3.292l-1.02,0.207c-0.892,0.181-1.469,1.05-1.288,1.942   c0.181,0.892,1.051,1.468,1.942,1.288c1.51-0.306,2.986,0.673,3.292,2.183c0.306,1.509-0.673,2.986-2.183,3.292l-6.824,1.383   c-0.892,0.181-1.469,1.05-1.288,1.942l0.043,0.212c0.163,0.803,0.891,1.365,1.709,1.318l14.539-0.833   c1.156-0.066,2.15,0.82,2.216,1.975c0.059,1.036-0.66,1.971-1.673,2.177c-0.099,0.02-0.199,0.033-0.302,0.039l-27.252,1.562   c-0.075,0.004-0.149,0.014-0.222,0.028c-7.838,1.534-15.505-3.584-17.091-11.409C5.874,70.896,6.791,66.717,9.195,63.41z"></path><path fill="#2D4534" d="M61.633,64.507c0.206,0.063,0.413,0.092,0.617,0.092c0.912,0,1.756-0.592,2.034-1.51   c1.338-4.422,0.875-9.1-1.305-13.173c-2.181-4.074-5.816-7.054-10.238-8.393c-1.126-0.342-2.311,0.295-2.651,1.418   c-0.34,1.124,0.295,2.311,1.419,2.651c3.335,1.01,6.077,3.257,7.722,6.33c1.644,3.072,1.993,6.6,0.983,9.935   C59.874,62.98,60.509,64.167,61.633,64.507z"></path><path fill="#2D4534" d="M72.96,67.937c0.206,0.063,0.413,0.092,0.617,0.092c0.912,0,1.756-0.592,2.034-1.51   c2.254-7.447,1.474-15.327-2.198-22.188s-9.795-11.88-17.242-14.134c-1.127-0.34-2.311,0.295-2.651,1.418   c-0.34,1.124,0.295,2.311,1.419,2.651c13.13,3.975,20.578,17.891,16.603,31.02C71.201,66.41,71.836,67.597,72.96,67.937z"></path><path fill="#2D4534" d="M84.098,71.309c0.206,0.063,0.413,0.092,0.617,0.092c0.912,0,1.756-0.592,2.034-1.51   c6.513-21.515-5.691-44.318-27.206-50.832c-1.121-0.34-2.311,0.295-2.651,1.418c-0.34,1.124,0.295,2.311,1.419,2.651   c19.271,5.834,30.202,26.259,24.368,45.53C82.339,69.782,82.974,70.968,84.098,71.309z"></path></g></svg>